<svg width="64" height="64" viewBox="0 0 140 140" xmlns="http://www.w3.org/2000/svg">
<g transform="translate(70,70)">
<polygon points="0,-70 60.6,-35 60.6,35 0,70 -60.6,35 -60.6,-35" fill="#1A1F3A" stroke="#FFD700" stroke-width="3"/>
<rect x="-38" y="32" width="76" height="6" rx="1" fill="#C8CDD8"/>
<rect x="-32" y="-38" width="6" height="70" fill="#C8CDD8"/>
<rect x="26" y="-38" width="6" height="70" fill="#C8CDD8"/>
<rect x="-32" y="-40" width="64" height="6" rx="1" fill="#C8CDD8"/>
<rect x="-20" y="-26" width="40" height="6" rx="1" fill="#FFD700"/>
<rect x="-7" y="-32" width="14" height="10" rx="1" fill="#FFD700"/>
<rect x="-16" y="-2" width="32" height="22" rx="1" fill="#F8F8FF"/>
<rect x="-10" y="3" width="20" height="3" fill="#1A1F3A"/>
<rect x="-10" y="8" width="14" height="3" fill="#1A1F3A"/>
<rect x="-10" y="13" width="20" height="3" fill="#1A1F3A"/>
<line x1="-5" y1="-22" x2="-5" y2="-2" stroke="#E8392A" stroke-width="3"/>
</g>
</svg>